<?xml version="1.0" encoding="UTF-8"?>
<svg xmlns="http://www.w3.org/2000/svg" viewBox="0 0 1095 1095" width="1095" height="1095">

<path d="M708.8 205.47C719.14 204.37 729.85 205.47 739.75 208.68C770.52 218.68 792.08 247.21 793.82 279.5C795.89 317.76 765.57 354.39 727.5 359.11C716.2 360.51 705.12 359.51 694.23 356.37C685.34 353.8 676.98 349.54 669.73 343.78C625.11 308.34 631.28 240.75 681.29 213.77C689.74 209.21 699.27 206.49 708.8 205.47ZM709.57 228.4C661.54 234.65 645.5 295.49 682.98 325.52C688.57 330 694.68 332.92 701.54 334.87C708.98 336.98 716.58 337.63 724.28 336.57C731 335.65 737.6 333.31 743.5 329.98C785.61 306.29 777.4 243.35 731.47 230.09C724.35 228.04 716.93 227.44 709.57 228.4ZM748.5 456.44C761.18 447.69 773.43 438.32 786.13 429.6C794.33 423.97 801.64 418.19 811.74 416.38C842.3 410.92 869.28 440.5 860.84 470.44C855.55 489.21 839.84 497.79 825.09 508.57C812.77 517.57 800.53 526.69 788.18 535.65C781.29 540.64 774.56 546.58 766.95 550.46C753.25 557.44 736.06 558.4 721.68 552.82C704.02 545.96 690.49 526.18 678.47 512.03C674.5 507.36 670.65 501.23 665.5 497.94C651.68 519.79 637.86 541.65 624.04 563.5C631.84 570.65 640.67 576.91 648.91 583.56C662 594.13 674.8 605.13 688.14 615.38C701.08 625.32 715.59 635.59 720.48 652.04C721.89 656.77 722.88 661.56 723.03 666.5C723.79 691.28 709.52 704.79 694.38 721.86C673.38 745.53 652.39 769.27 631.63 793.15C618.47 808.3 606.11 826.48 584.5 828.86C554.53 832.17 530.15 803.83 537.25 774.66C540.45 761.52 550.21 752.1 558.33 741.81C574.93 720.81 592.63 700.67 609 679.5C589.5 664.72 570 649.93 550.5 635.15C543.54 643.46 537.89 653.3 531.71 662.23C522.84 675.03 513.87 687.76 505.1 700.63C499.18 709.33 493.72 719.29 486.36 726.86C477.18 736.28 462.83 743.11 451.73 750.24C429.62 764.43 407.11 778.18 385.33 792.87C379.34 796.91 373.16 800.66 367.07 804.56C360.11 809.01 353.33 814.26 345.38 816.82C325.01 823.36 301.75 815.05 291.37 796.15C288.7 791.3 286.76 785.98 285.91 780.5C285.18 775.78 285.11 771.24 285.68 766.5C288.9 739.82 314.89 728.36 335.03 715.52C353.36 703.84 371.79 692.31 390.07 680.55C396.87 676.18 411.04 668.96 416.06 663.57C420.84 658.45 427.44 644.3 431.04 637.58C440.75 619.5 451.03 601.57 461.35 583.83C474.27 561.62 486.21 538.84 499.05 516.6C517.1 485.35 536.83 455.03 554.38 423.5C550.78 421.5 545.73 422.4 541.5 422.45C537.21 422.5 529.03 421.25 525.2 422.65C522.96 423.47 521.28 426.54 519.89 428.34C516.55 432.68 513.13 436.95 509.76 441.27C492.56 463.33 476.74 493.79 443.35 486.33C438.48 485.24 433.94 483.44 429.72 480.78C414.32 471.12 407.34 452.05 410.86 434.5C413.44 421.63 423.48 411.76 431.16 401.7C439.8 390.35 448.77 379.24 457.4 367.89C470.41 350.77 481.88 335.92 505.5 334.8C527.41 333.75 549.56 334.84 571.5 334.73C600.99 334.6 627.28 332.11 652.89 349.57C665.85 358.42 675.66 370.91 685.67 382.81C699.24 398.93 712.87 414.95 726.47 431.04C732.5 438.17 741.37 451.4 748.5 456.44ZM506.76 357.47C492.16 358.53 484.53 369.21 476.37 379.84C467.25 391.71 457.97 403.45 448.84 415.31C444.19 421.35 436.3 429.1 433.58 436.08C429.88 445.57 433.11 456.31 441.67 461.85C454.22 469.97 464.67 462.69 472.4 452.87C480.91 442.06 489.39 431.19 497.78 420.28C501.78 415.08 506.91 406.3 512.14 402.62C519.16 397.67 534.98 399.83 543.5 399.87C550.5 399.9 557.5 400 564.5 399.95C568.09 399.92 571.91 399.44 575.45 400.11C580.29 401.04 584.38 405.65 584.86 410.52C585.42 416.2 581.91 421.01 579.09 425.61C574.79 432.67 570.7 439.87 566.52 446.99C554.94 466.71 543.54 486.57 531.56 506.05C522.8 520.28 512.51 534.14 512.23 551.5C511.82 577.39 528.56 589.55 546.79 603.69C565.77 618.42 585.28 632.49 604.13 647.39C611.01 652.82 618.14 658.14 625.25 663.27C629.72 666.5 634.45 669.55 635.27 675.5C636.64 685.4 624.43 695.84 618.62 703.16C606.4 718.55 593.73 733.57 581.4 748.87C574.99 756.83 567.02 764.51 561.69 773.22C552.35 788.49 564.16 809.22 582.64 806.35C596.27 804.24 607.96 786.32 616.77 776.26C634.67 755.83 652.78 735.57 670.48 714.98C678.01 706.23 686.23 697.98 693.53 689.04C701.08 679.79 703.53 664.81 697.33 654.19C691.6 644.37 680.37 637.88 671.65 630.9C656.46 618.74 641.51 606.29 626.33 594.13C619.37 588.56 601.6 576.95 600 568.5C598.07 558.32 606.56 549.15 611.52 541.04C621.21 525.2 631.42 509.6 641.52 494.02C645.67 487.64 649.2 480.41 653.96 474.47C655.87 472.08 658.5 470.52 661.43 469.72C670.13 467.34 675.29 474.55 680.36 480.15C690.67 491.53 700.35 503.47 710.61 514.88C718.11 523.23 723.75 530.77 735.33 533.33C749.25 536.41 759.2 528.92 769.74 521.25C786.73 508.9 803.69 496.51 820.72 484.21C830.2 477.36 840.72 470.79 839.83 457.5C838.89 443.39 823.54 434.13 810.63 440.14C804.91 442.81 799.79 447.47 794.64 451.1C783.87 458.68 773.32 466.61 762.38 473.94C755.9 478.28 749.02 485.18 740.62 480.89C733.73 477.38 722.51 461.14 716.9 454.62C701.64 436.89 686.4 419.04 671.49 401C662.26 389.83 653.12 376.68 640.87 368.62C619.91 354.82 597.49 357.3 573.5 357.36C559.83 357.4 546.17 357.42 532.5 357.36C523.99 357.32 515.25 356.85 506.76 357.47ZM492.5 573.55C480.55 597.46 466.25 620.37 453.2 643.69C449.02 651.17 444.78 658.61 440.59 666.09C437.7 671.24 435.39 676.41 431.18 680.68C428.23 683.67 424.71 685.49 421.15 687.63C413.93 691.98 406.78 696.61 399.69 701.17C378.15 715.04 356.45 728.65 334.82 742.36C320.7 751.29 301.96 760.09 308.79 780.62C309.8 783.65 311.36 786.6 313.51 788.98C319.59 795.7 329.37 797.81 337.97 795.47C344.25 793.77 350.26 788.66 355.65 785.1C364.9 778.98 374.31 773.1 383.66 767.14C402.17 755.35 420.5 743.26 439.08 731.57C448.26 725.8 462.31 718.6 469.94 711.45C473.79 707.85 476.31 703.05 479.26 698.75C483.85 692.04 488.44 685.31 493.12 678.67C502.36 665.55 511.58 652.36 520.53 639.04C524.48 633.17 529.03 627.59 532.61 621.5C523.42 612.81 512.77 606.74 505.08 596.38C502.22 592.53 499.47 588.4 497.47 584.04C495.83 580.47 494.9 576.48 492.5 573.55Z" fill="#59b3cf" fill-rule="evenodd" stroke="#59b3cf" stroke-width="0.25" stroke-linejoin="round"/>
<path d="M273.7 493.28C280.35 491.3 296.83 492.71 304.5 492.73C325.17 492.8 345.83 492.63 366.5 492.75C375.94 492.81 392.55 490.58 390.91 505.48C389.53 518.02 373.19 515.19 364.5 515.13C344.5 514.99 324.5 515.07 304.5 515.11C296.3 515.13 282.12 516.46 274.61 514.79C264.32 512.5 263.45 496.33 273.7 493.28ZM240.68 558.28C244.73 557.44 249.37 558.05 253.5 558.04C262.83 558.03 272.17 558.01 281.5 558.04C309.17 558.13 336.83 558.02 364.5 558.02C369.5 558.02 374.5 558.06 379.5 558.05C388.17 558.03 401.38 557.55 399.99 570.49C399.56 574.51 396.28 578.66 392.37 579.85C386.11 581.74 370.73 580.37 363.5 580.37C335.5 580.38 307.5 580.42 279.5 580.39C270.83 580.38 262.17 580.36 253.5 580.38C249.31 580.38 244.62 581.06 240.51 580.12C229.32 577.59 229.42 560.61 240.68 558.28Z" fill="#eca647" fill-rule="evenodd" stroke="#eca647" stroke-width="0.25" stroke-linejoin="round"/>
</svg>